<?xml version="1.0" encoding="UTF-8"?>
<svg width="512" height="512">
  <path
    d="m 217.65701,407.83544 -6.37904,-6.45721 7.87497,-8.19332 c 18.65979,-19.41402 55.07681,-15.61689 74.42008,0.0735 l 7.80179,8.11973 -6.3213,6.40122 c -5.73132,5.80379 -7.17855,5.65048 -15.50554,-1.64264 -12.1509,-10.64222 -32.33936,-10.61744 -45.51395,0.0558 -9.09042,7.36458 -10.577,7.51371 -16.37701,1.64266 z m -58.46628,-54.24013 c -4.90371,-4.96241 -8.91583,-10.42509 -8.91583,-12.13922 0,-5.02102 29.66943,-28.26078 45.93183,-35.97794 46.85068,-22.23257 105.67334,-16.01607 146.42027,15.47396 6.17096,4.76903 13.35054,11.28174 15.95465,14.47262 l 4.73475,5.80157 -10.13224,10.38539 -10.13224,10.38536 -12.10916,-14.0433 c -22.97311,-26.64243 -38.85744,-33.99574 -73.67786,-34.10773 -35.65147,-0.11484 -47.6501,5.29429 -72.62361,32.73867 -8.45601,9.29266 -15.6356,16.70165 -15.95465,16.46445 -0.31904,-0.2372 -4.5922,-4.49139 -9.49591,-9.45383 z m -58.65681,-55.98918 c -7.226521,-7.06368 -13.764185,-14.19246 -14.528153,-15.84156 -2.228119,-4.80975 32.212113,-34.20071 56.254673,-48.00721 39.61038,-22.74631 60.40208,-30.74176 113.12744,-30.89567 29.80064,-0.087 54.59341,4.85916 65.69562,8.42281 35.40452,11.36423 74.48611,34.65303 97.97909,58.38602 l 9.66948,9.76827 -14.65657,14.18111 -14.65659,14.18117 -20.86678,-23.9774 C 346.39884,246.87724 313.94429,228.20725 272.10554,222.58895 219.23508,215.48929 159.03309,246.3004 121.18112,299.83109 l -7.50807,10.61801 z M 29.452894,228.46586 C 3.9241388,203.2743 3.5937836,196.62293 28.039002,199.99876 c 11.464184,1.58316 17.02422,6.59851 29.32351,18.14279 l 15.01614,16.16704 -6.569561,8.15917 c -3.613254,4.48753 -8.258877,8.11937 -10.323597,8.0708 -2.064719,-0.0485 -13.779385,-9.98129 -26.0326,-22.0727 z m 415.983026,12.38638 c -5.41989,-5.09976 -9.85434,-10.4302 -9.85434,-11.84545 0,-1.41528 8.23542,-8.75859 18.30092,-16.31852 14.17372,-10.64545 21.55656,-13.73084 32.73702,-13.68135 7.93986,0.0345 14.85621,1.63064 15.36963,3.54552 0.80336,2.99619 -43.24777,49.19111 -45.77688,48.00458 -0.5071,-0.23795 -5.35646,-4.60506 -10.77635,-9.70478 z M 243.61575,141.74386 c -0.82327,-18.93407 -0.33997,-24.33463 2.90392,-32.44922 4.97877,-12.454515 10.88587,-12.389491 16.00719,0.17611 3.4584,8.48547 1.98097,13.12839 2.88125,32.44924 l -1.15805,22.53841 -9.82332,0 -9.82334,0 -0.98765,-22.71446 z"
    style="fill:#00f7ff;stroke:#00f7ff;stroke-width:15;stroke-linecap:round;stroke-linejoin:round" />
</svg>
